<svg xmlns="http://www.w3.org/2000/svg" viewBox="0 0 48 48" width="48" height="48">
  <!-- Grupo con transformación de escala para el logo de Budgie Desktop -->
  <g transform="scale(0.95) translate(1.26, 1.26)">
    <!-- SVG del logo de Budgie Desktop sin el ojo -->
    <path style="fill:#dfdfdf" d="M 24,0 C 10.745166,0 0,10.745166 0,24 c 0,13.254834 10.745166,24 24,24 13.254834,0 24,-10.745166 24,-24 C 48,10.745166 37.254834,0 24,0 Z M 28.095703,12 C 32.667501,12 35.921974,15.674188 37.174805,18.897461 L 41.25,21 37.1875,22.980469 C 37.521877,26.650738 35.472142,30.473721 33.144531,33.257812 30.910545,35.98861 27.826758,37.499916 24.755859,38.384766 20.1192,39.650256 15.153091,39.181907 10.842773,36.199219 8.870212,34.361938 7.0591918,32.314635 5.7402344,29.884766 4.8910719,27.523744 4.8388313,25.162066 5.2441406,22.800781 5.6494501,24.190378 6.9938088,26.109099 8.671875,26.441406 10.349941,26.773713 12.216004,26.217917 13.171875,25.021484 15.023212,22.844806 16.061475,17.916447 18.569336,15.796875 20.013257,14.349354 21.713941,14 23.412109,14 Z"/>
  </g>
  
  <!-- SVG 1: Gráfico complejo con gradientes -->
  <linearGradient id="a" gradientUnits="userSpaceOnUse" x1="2" x2="46" y1="24" y2="24">
    <stop offset="0" stop-color="#757f9a"/>
    <stop offset=".98695652174" stop-color="#d7dde8"/>
  </linearGradient>
  <path d="m9.38 7.556c-.321.284-.635.579-.94.884-4.12 4.13-6.44 9.73-6.44 15.56 0 5.681 2.203 11.143 6.13 15.239-2.554 2.924-4.13 4.761-4.13 4.761h10l.22-.294c3.014 1.494 6.357 2.294 9.78 2.294 4.286 0 8.449-1.254 11.985-3.57.009.517.015 1.037.015 1.57h6c0-2.045-.296-4.134-.848-6.245 3.126-3.879 4.848-8.732 4.848-13.755 0-4.283-1.252-8.441-3.563-11.976.588-1.292 1.563-2.024 1.563-2.024h-3.026c-.444-.54-.916-1.061-1.414-1.56-4.13-4.12-9.73-6.44-15.56-6.44-3.215 0-6.359.705-9.226 2.029-1.918.088-3.799.654-8.774 3.971 1.175-.294 2.298-.438 3.38-.444zm5.26 1.069c-1.214.74-2.347 1.625-3.37 2.645-3.37 3.38-5.27 7.96-5.27 12.73 0 4.531 1.714 8.89 4.772 12.213 4.285-4.929 10.577-12.055 15.845-17.74-4.23-4.558-7.943-8.151-11.977-9.848zm6.667-2.428c.887-.128 1.787-.197 2.693-.197 4.216 0 8.284 1.484 11.498 4.168-.963.442-2.96 2.047-5.853 5.077-2.81-3.854-5.657-7.07-8.338-9.048zm17.005 6.892c2.377 3.119 3.688 6.949 3.688 10.911 0 3.159-.833 6.235-2.381 8.931-1.793-4.577-4.407-9.165-7.167-13.531l4.048-5.4s.74-.617 1.812-.911zm-2.673 24.628c-3.237 2.755-7.362 4.283-11.639 4.283-2.548 0-5.042-.542-7.328-1.561l13.295-17.723c2.938 4.265 4.924 8.641 5.672 15.001z" fill="url(#a)" fill-rule="evenodd"/>
</svg>

